<?xml version="1.0" encoding="iso-8859-1"?>
<!-- Generator: Adobe Illustrator 19.0.0, SVG Export Plug-In . SVG Version: 6.00 Build 0)  -->
<svg version="1.1" id="Layer_1" xmlns="http://www.w3.org/2000/svg" xmlns:xlink="http://www.w3.org/1999/xlink" x="0px" y="0px"
	 viewBox="0 0 491.52 491.52" style="enable-background:new 0 0 491.52 491.52;" xml:space="preserve">
<g>
	<g>
		<path d="M471.04,368.64h-20.48V307.2c0-11.311-9.169-20.48-20.48-20.48V122.88h20.48c15.224,0,25.126-16.022,18.318-29.639
			l-40.96-81.92C424.449,4.383,417.357,0,409.6,0H81.92c-7.757,0-14.849,4.383-18.318,11.321l-40.96,81.92
			c-6.809,13.617,3.093,29.639,18.318,29.639h20.48v163.84c-11.311,0-20.48,9.169-20.48,20.48v61.44H20.48
			C9.169,368.64,0,377.809,0,389.12v81.92c0,11.311,9.169,20.48,20.48,20.48h450.56c11.311,0,20.48-9.169,20.48-20.48v-81.92
			C491.52,377.809,482.351,368.64,471.04,368.64z M389.12,286.72h-40.96V122.88h40.96V286.72z M266.24,286.72V122.88h40.96v163.84
			H266.24z M184.32,286.72V122.88h40.96v163.84H184.32z M94.577,40.96h302.365l20.48,40.96H74.097L94.577,40.96z M102.4,122.88
			h40.96v163.84H102.4V122.88z M81.92,327.68H409.6v40.96H81.92V327.68z M450.56,450.56H40.96V409.6h20.48h368.64h20.48V450.56z"/>
	</g>
</g>
<g>
</g>
<g>
</g>
<g>
</g>
<g>
</g>
<g>
</g>
<g>
</g>
<g>
</g>
<g>
</g>
<g>
</g>
<g>
</g>
<g>
</g>
<g>
</g>
<g>
</g>
<g>
</g>
<g>
</g>
</svg>
